<mxfile host="app.diagrams.net" modified="2023-09-13T23:33:52.173Z" agent="Mozilla/5.0 (Windows NT 10.0; Win64; x64) AppleWebKit/537.36 (KHTML, like Gecko) Chrome/116.0.0.0 Safari/537.36 Edg/116.0.1938.76" etag="1tp3l7_Z3ncx3U0AJWM2" version="21.7.5" type="github">
  <diagram name="Page-1" id="in-kc5Wj1Eup-R9uH_OV">
    <mxGraphModel dx="1042" dy="535" grid="1" gridSize="10" guides="1" tooltips="1" connect="1" arrows="1" fold="1" page="1" pageScale="1" pageWidth="850" pageHeight="1400" math="0" shadow="0">
      <root>
        <mxCell id="0" />
        <mxCell id="1" parent="0" />
        <mxCell id="kx3uohau9YngKv4BrHrU-1" value="" style="image;points=[];aspect=fixed;html=1;align=center;shadow=0;dashed=0;image=img/lib/allied_telesis/computer_and_terminals/Personal_Computer.svg;" vertex="1" parent="1">
          <mxGeometry x="130" y="280" width="125.44" height="170" as="geometry" />
        </mxCell>
        <mxCell id="kx3uohau9YngKv4BrHrU-2" value="" style="ellipse;shape=cloud;whiteSpace=wrap;html=1;" vertex="1" parent="1">
          <mxGeometry x="365" y="260" width="120" height="80" as="geometry" />
        </mxCell>
        <mxCell id="kx3uohau9YngKv4BrHrU-3" value="" style="image;html=1;image=img/lib/clip_art/computers/Server_Tower_128x128.png" vertex="1" parent="1">
          <mxGeometry x="580" y="180" width="80" height="80" as="geometry" />
        </mxCell>
        <mxCell id="kx3uohau9YngKv4BrHrU-5" value="" style="endArrow=classic;html=1;rounded=0;" edge="1" parent="1" target="kx3uohau9YngKv4BrHrU-2">
          <mxGeometry width="50" height="50" relative="1" as="geometry">
            <mxPoint x="280" y="370" as="sourcePoint" />
            <mxPoint x="330" y="320" as="targetPoint" />
          </mxGeometry>
        </mxCell>
        <mxCell id="kx3uohau9YngKv4BrHrU-6" value="" style="endArrow=classic;html=1;rounded=0;" edge="1" parent="1" source="kx3uohau9YngKv4BrHrU-3">
          <mxGeometry width="50" height="50" relative="1" as="geometry">
            <mxPoint x="550" y="240" as="sourcePoint" />
            <mxPoint x="490" y="280" as="targetPoint" />
          </mxGeometry>
        </mxCell>
        <mxCell id="kx3uohau9YngKv4BrHrU-7" value="" style="endArrow=classic;html=1;rounded=0;" edge="1" parent="1">
          <mxGeometry width="50" height="50" relative="1" as="geometry">
            <mxPoint x="500" y="290" as="sourcePoint" />
            <mxPoint x="590" y="248" as="targetPoint" />
          </mxGeometry>
        </mxCell>
        <mxCell id="kx3uohau9YngKv4BrHrU-8" value="" style="endArrow=classic;html=1;rounded=0;" edge="1" parent="1">
          <mxGeometry width="50" height="50" relative="1" as="geometry">
            <mxPoint x="365" y="300" as="sourcePoint" />
            <mxPoint x="269" y="347" as="targetPoint" />
          </mxGeometry>
        </mxCell>
        <mxCell id="kx3uohau9YngKv4BrHrU-9" value="Internet" style="text;html=1;strokeColor=none;fillColor=none;align=center;verticalAlign=middle;whiteSpace=wrap;rounded=0;" vertex="1" parent="1">
          <mxGeometry x="390" y="285" width="60" height="30" as="geometry" />
        </mxCell>
        <mxCell id="kx3uohau9YngKv4BrHrU-10" value="Computer" style="text;html=1;strokeColor=none;fillColor=none;align=center;verticalAlign=middle;whiteSpace=wrap;rounded=0;" vertex="1" parent="1">
          <mxGeometry x="150" y="450" width="60" height="30" as="geometry" />
        </mxCell>
        <mxCell id="kx3uohau9YngKv4BrHrU-11" value="Server" style="text;html=1;strokeColor=none;fillColor=none;align=center;verticalAlign=middle;whiteSpace=wrap;rounded=0;" vertex="1" parent="1">
          <mxGeometry x="610" y="270" width="60" height="30" as="geometry" />
        </mxCell>
        <mxCell id="kx3uohau9YngKv4BrHrU-13" value="" style="sketch=0;outlineConnect=0;fontColor=#232F3E;gradientColor=none;strokeColor=#232F3E;fillColor=#ffffff;dashed=0;verticalLabelPosition=bottom;verticalAlign=top;align=center;html=1;fontSize=12;fontStyle=0;aspect=fixed;shape=mxgraph.aws4.resourceIcon;resIcon=mxgraph.aws4.ssl_padlock;" vertex="1" parent="1">
          <mxGeometry x="365" y="210" width="60" height="60" as="geometry" />
        </mxCell>
        <mxCell id="kx3uohau9YngKv4BrHrU-15" value="SSL" style="text;html=1;strokeColor=none;fillColor=none;align=center;verticalAlign=middle;whiteSpace=wrap;rounded=0;" vertex="1" parent="1">
          <mxGeometry x="365" y="190" width="60" height="30" as="geometry" />
        </mxCell>
        <mxCell id="kx3uohau9YngKv4BrHrU-16" value="" style="image;html=1;image=img/lib/clip_art/general/Full_Folder_128x128.png" vertex="1" parent="1">
          <mxGeometry x="540" y="220" width="30" height="20" as="geometry" />
        </mxCell>
        <mxCell id="kx3uohau9YngKv4BrHrU-17" value="" style="image;html=1;image=img/lib/clip_art/general/Full_Folder_128x128.png" vertex="1" parent="1">
          <mxGeometry x="510" y="240" width="30" height="20" as="geometry" />
        </mxCell>
        <mxCell id="kx3uohau9YngKv4BrHrU-18" value="" style="image;html=1;image=img/lib/clip_art/general/Full_Folder_128x128.png" vertex="1" parent="1">
          <mxGeometry x="480" y="250" width="30" height="20" as="geometry" />
        </mxCell>
        <mxCell id="kx3uohau9YngKv4BrHrU-19" value="" style="image;html=1;image=img/lib/clip_art/general/Full_Folder_128x128.png" vertex="1" parent="1">
          <mxGeometry x="330" y="280" width="30" height="20" as="geometry" />
        </mxCell>
        <mxCell id="kx3uohau9YngKv4BrHrU-20" value="" style="image;html=1;image=img/lib/clip_art/general/Full_Folder_128x128.png" vertex="1" parent="1">
          <mxGeometry x="300" y="295" width="30" height="20" as="geometry" />
        </mxCell>
        <mxCell id="kx3uohau9YngKv4BrHrU-21" value="" style="image;html=1;image=img/lib/clip_art/general/Full_Folder_128x128.png" vertex="1" parent="1">
          <mxGeometry x="270" y="310" width="30" height="20" as="geometry" />
        </mxCell>
      </root>
    </mxGraphModel>
  </diagram>
</mxfile>
